<mxfile host="Electron" agent="Mozilla/5.0 (Windows NT 10.0; Win64; x64) AppleWebKit/537.36 (KHTML, like Gecko) draw.io/24.7.8 Chrome/128.0.6613.36 Electron/32.0.1 Safari/537.36" version="24.7.8">
  <diagram name="Page-1" id="03018318-947c-dd8e-b7a3-06fadd420f32">
    <mxGraphModel dx="1120" dy="532" grid="1" gridSize="10" guides="1" tooltips="1" connect="1" arrows="1" fold="1" page="1" pageScale="1" pageWidth="1100" pageHeight="850" background="none" math="0" shadow="0">
      <root>
        <mxCell id="0" />
        <mxCell id="1" parent="0" />
        <mxCell id="mlrIeRnkjeaRNP7PGBqb-5" value="" style="rounded=0;whiteSpace=wrap;html=1;" parent="1" vertex="1">
          <mxGeometry x="130" y="600" width="390" height="30" as="geometry" />
        </mxCell>
        <mxCell id="677b7b8949515195-1" value="" style="whiteSpace=wrap;html=1;rounded=0;shadow=0;labelBackgroundColor=none;strokeColor=#000000;strokeWidth=1;fillColor=none;fontFamily=Verdana;fontSize=12;fontColor=#000000;align=center;comic=1;" parent="1" vertex="1">
          <mxGeometry x="20" y="40" width="1060" height="1080" as="geometry" />
        </mxCell>
        <mxCell id="677b7b8949515195-2" value="LOGO" style="whiteSpace=wrap;html=1;rounded=0;shadow=0;labelBackgroundColor=none;strokeWidth=1;fontFamily=Verdana;fontSize=28;align=center;comic=1;" parent="1" vertex="1">
          <mxGeometry x="40" y="60" width="190" height="50" as="geometry" />
        </mxCell>
        <mxCell id="677b7b8949515195-3" value="Search" style="strokeWidth=1;shadow=0;dashed=0;align=center;html=1;shape=mxgraph.mockup.forms.searchBox;strokeColor=#999999;mainText=;strokeColor2=#008cff;fontColor=#666666;fontSize=17;align=left;spacingLeft=3;rounded=0;labelBackgroundColor=none;comic=1;" parent="1" vertex="1">
          <mxGeometry x="840" y="95" width="220" height="30" as="geometry" />
        </mxCell>
        <mxCell id="677b7b8949515195-9" value="" style="line;strokeWidth=1;html=1;rounded=0;shadow=0;labelBackgroundColor=none;fillColor=none;fontFamily=Verdana;fontSize=14;fontColor=#000000;align=center;comic=1;" parent="1" vertex="1">
          <mxGeometry x="20" y="140" width="1060" height="10" as="geometry" />
        </mxCell>
        <mxCell id="677b7b8949515195-10" value="" style="whiteSpace=wrap;html=1;rounded=0;shadow=0;labelBackgroundColor=none;strokeWidth=1;fillColor=none;fontFamily=Verdana;fontSize=12;align=center;comic=1;" parent="1" vertex="1">
          <mxGeometry x="30" y="160" width="1040" height="50" as="geometry" />
        </mxCell>
        <mxCell id="677b7b8949515195-11" value="Home" style="text;html=1;points=[];align=left;verticalAlign=top;spacingTop=-4;fontSize=14;fontFamily=Verdana" parent="1" vertex="1">
          <mxGeometry x="50" y="175" width="60" height="20" as="geometry" />
        </mxCell>
        <mxCell id="677b7b8949515195-12" value="&lt;span style=&quot;background-color: rgb(0, 0, 0);&quot;&gt;&lt;font color=&quot;#ffffff&quot;&gt;Register/Login&lt;/font&gt;&lt;/span&gt;" style="text;html=1;points=[];align=left;verticalAlign=top;spacingTop=-4;fontSize=14;fontFamily=Verdana" parent="1" vertex="1">
          <mxGeometry x="160" y="175" width="130" height="30" as="geometry" />
        </mxCell>
        <mxCell id="677b7b8949515195-14" value="Search for a Business" style="text;html=1;points=[];align=left;verticalAlign=top;spacingTop=-4;fontSize=14;fontFamily=Verdana" parent="1" vertex="1">
          <mxGeometry x="310" y="175" width="170" height="20" as="geometry" />
        </mxCell>
        <mxCell id="677b7b8949515195-15" value="&lt;div style=&quot;text-align: justify&quot;&gt;&lt;p style=&quot;font-size: large; font-family: &amp;quot;Times New Roman&amp;quot;, Times, serif; text-indent: 2%; font-weight: 700; text-align: start;&quot; class=&quot;paragraph_style&quot;&gt;Register to access all the features of this site and to be kept up to date with any new information regarding our website. Registration allows access to Search for a business that offers discounts and/or incentives to&amp;nbsp;&lt;span style=&quot;background-color: initial;&quot;&gt;&quot;active duty, veterans, first responders, and their spouses.&quot; Registration also allows you to submit corrections for incorrect or missing information about a local business.&lt;/span&gt;&lt;/p&gt;&lt;p style=&quot;font-size: large; font-family: &amp;quot;Times New Roman&amp;quot;, Times, serif; text-indent: 2%; font-weight: 700; text-align: start;&quot; class=&quot;paragraph_style&quot;&gt;&lt;span style=&quot;background-color: initial;&quot;&gt;If you are already registered, please go ahead and login for complete access.&lt;/span&gt;&lt;/p&gt;&lt;/div&gt;" style="whiteSpace=wrap;html=1;rounded=0;shadow=0;labelBackgroundColor=none;strokeWidth=1;fillColor=none;fontFamily=Verdana;fontSize=12;align=center;verticalAlign=top;spacing=10;comic=1;" parent="1" vertex="1">
          <mxGeometry x="30" y="230" width="1040" height="180" as="geometry" />
        </mxCell>
        <mxCell id="ubhy5sFj4Xcip8Dqailu-1" value="&lt;b&gt;&lt;font style=&quot;font-size: 36px;&quot;&gt;Patriot Thanks&lt;/font&gt;&lt;/b&gt;&lt;div&gt;&lt;b&gt;&lt;font style=&quot;font-size: 36px;&quot;&gt;Registration/Login&lt;/font&gt;&lt;/b&gt;&lt;/div&gt;" style="text;html=1;align=center;verticalAlign=middle;whiteSpace=wrap;rounded=0;" parent="1" vertex="1">
          <mxGeometry x="385" y="52.5" width="330" height="65" as="geometry" />
        </mxCell>
        <mxCell id="ubhy5sFj4Xcip8Dqailu-2" value="Submit a Correction" style="text;html=1;points=[];align=left;verticalAlign=top;spacingTop=-4;fontSize=14;fontFamily=Verdana" parent="1" vertex="1">
          <mxGeometry x="520" y="175" width="160" height="20" as="geometry" />
        </mxCell>
        <mxCell id="ubhy5sFj4Xcip8Dqailu-3" value="About Us" style="text;html=1;points=[];align=left;verticalAlign=top;spacingTop=-4;fontSize=14;fontFamily=Verdana" parent="1" vertex="1">
          <mxGeometry x="720" y="175" width="60" height="20" as="geometry" />
        </mxCell>
        <mxCell id="ubhy5sFj4Xcip8Dqailu-4" value="Contact Us" style="text;html=1;points=[];align=left;verticalAlign=top;spacingTop=-4;fontSize=14;fontFamily=Verdana" parent="1" vertex="1">
          <mxGeometry x="840" y="175" width="60" height="20" as="geometry" />
        </mxCell>
        <mxCell id="ubhy5sFj4Xcip8Dqailu-5" value="" style="line;strokeWidth=1;html=1;rounded=0;shadow=0;labelBackgroundColor=none;fillColor=none;fontFamily=Verdana;fontSize=14;fontColor=#000000;align=center;comic=1;" parent="1" vertex="1">
          <mxGeometry x="20" y="1010" width="1060" height="10" as="geometry" />
        </mxCell>
        <mxCell id="ubhy5sFj4Xcip8Dqailu-6" value="Copyright footer&lt;div&gt;&lt;br&gt;&lt;/div&gt;&lt;div&gt;contact: email&lt;/div&gt;" style="text;html=1;align=center;verticalAlign=middle;whiteSpace=wrap;rounded=0;" parent="1" vertex="1">
          <mxGeometry x="310" y="1030" width="440" height="70" as="geometry" />
        </mxCell>
        <mxCell id="ubhy5sFj4Xcip8Dqailu-7" value="First Name:" style="text;html=1;align=left;verticalAlign=middle;whiteSpace=wrap;rounded=0;" parent="1" vertex="1">
          <mxGeometry x="40" y="480" width="90" height="30" as="geometry" />
        </mxCell>
        <mxCell id="ubhy5sFj4Xcip8Dqailu-8" value="&lt;font style=&quot;font-size: 24px;&quot;&gt;Registration&lt;/font&gt;" style="text;html=1;align=center;verticalAlign=middle;whiteSpace=wrap;rounded=0;" parent="1" vertex="1">
          <mxGeometry x="90" y="420" width="370" height="50" as="geometry" />
        </mxCell>
        <mxCell id="ubhy5sFj4Xcip8Dqailu-9" value="Last Name:" style="text;html=1;align=left;verticalAlign=middle;whiteSpace=wrap;rounded=0;" parent="1" vertex="1">
          <mxGeometry x="40" y="520" width="90" height="30" as="geometry" />
        </mxCell>
        <mxCell id="ubhy5sFj4Xcip8Dqailu-10" value="Address Line 2:" style="text;html=1;align=left;verticalAlign=middle;whiteSpace=wrap;rounded=0;" parent="1" vertex="1">
          <mxGeometry x="40" y="600" width="90" height="30" as="geometry" />
        </mxCell>
        <mxCell id="ubhy5sFj4Xcip8Dqailu-11" value="Address Line 1:" style="text;html=1;align=left;verticalAlign=middle;whiteSpace=wrap;rounded=0;" parent="1" vertex="1">
          <mxGeometry x="40" y="560" width="90" height="30" as="geometry" />
        </mxCell>
        <mxCell id="ubhy5sFj4Xcip8Dqailu-12" value="City:" style="text;html=1;align=left;verticalAlign=middle;whiteSpace=wrap;rounded=0;" parent="1" vertex="1">
          <mxGeometry x="40" y="640" width="90" height="30" as="geometry" />
        </mxCell>
        <mxCell id="ubhy5sFj4Xcip8Dqailu-14" value="State:" style="text;html=1;align=left;verticalAlign=middle;whiteSpace=wrap;rounded=0;" parent="1" vertex="1">
          <mxGeometry x="40" y="680" width="90" height="30" as="geometry" />
        </mxCell>
        <mxCell id="ubhy5sFj4Xcip8Dqailu-15" value="Zip:" style="text;html=1;align=left;verticalAlign=middle;whiteSpace=wrap;rounded=0;" parent="1" vertex="1">
          <mxGeometry x="40" y="720" width="90" height="30" as="geometry" />
        </mxCell>
        <mxCell id="ubhy5sFj4Xcip8Dqailu-16" value="Phone Number:" style="text;html=1;align=left;verticalAlign=middle;whiteSpace=wrap;rounded=0;" parent="1" vertex="1">
          <mxGeometry x="40" y="760" width="90" height="30" as="geometry" />
        </mxCell>
        <mxCell id="ubhy5sFj4Xcip8Dqailu-17" value="Status:&amp;nbsp;" style="text;html=1;align=left;verticalAlign=middle;whiteSpace=wrap;rounded=0;" parent="1" vertex="1">
          <mxGeometry x="40" y="800" width="90" height="30" as="geometry" />
        </mxCell>
        <mxCell id="ubhy5sFj4Xcip8Dqailu-18" value="" style="rounded=0;whiteSpace=wrap;html=1;" parent="1" vertex="1">
          <mxGeometry x="130" y="480" width="390" height="30" as="geometry" />
        </mxCell>
        <mxCell id="ubhy5sFj4Xcip8Dqailu-19" value="" style="rounded=0;whiteSpace=wrap;html=1;" parent="1" vertex="1">
          <mxGeometry x="680" y="480" width="390" height="30" as="geometry" />
        </mxCell>
        <mxCell id="ubhy5sFj4Xcip8Dqailu-20" value="" style="rounded=0;whiteSpace=wrap;html=1;" parent="1" vertex="1">
          <mxGeometry x="130" y="560" width="390" height="30" as="geometry" />
        </mxCell>
        <mxCell id="ubhy5sFj4Xcip8Dqailu-21" value="" style="rounded=0;whiteSpace=wrap;html=1;" parent="1" vertex="1">
          <mxGeometry x="130" y="520" width="390" height="30" as="geometry" />
        </mxCell>
        <mxCell id="ubhy5sFj4Xcip8Dqailu-22" value="" style="rounded=0;whiteSpace=wrap;html=1;" parent="1" vertex="1">
          <mxGeometry x="130" y="640" width="190" height="30" as="geometry" />
        </mxCell>
        <mxCell id="ubhy5sFj4Xcip8Dqailu-24" value="" style="rounded=0;whiteSpace=wrap;html=1;" parent="1" vertex="1">
          <mxGeometry x="130" y="720" width="190" height="30" as="geometry" />
        </mxCell>
        <mxCell id="ubhy5sFj4Xcip8Dqailu-25" value="" style="rounded=0;whiteSpace=wrap;html=1;" parent="1" vertex="1">
          <mxGeometry x="130" y="760" width="190" height="30" as="geometry" />
        </mxCell>
        <mxCell id="ubhy5sFj4Xcip8Dqailu-26" value="" style="rounded=0;whiteSpace=wrap;html=1;" parent="1" vertex="1">
          <mxGeometry x="130" y="800" width="390" height="30" as="geometry" />
        </mxCell>
        <mxCell id="ubhy5sFj4Xcip8Dqailu-27" value="&lt;font color=&quot;#999999&quot;&gt;First Name&lt;/font&gt;" style="text;html=1;align=left;verticalAlign=middle;whiteSpace=wrap;rounded=0;" parent="1" vertex="1">
          <mxGeometry x="130" y="480" width="90" height="30" as="geometry" />
        </mxCell>
        <mxCell id="ubhy5sFj4Xcip8Dqailu-28" value="&lt;font color=&quot;#999999&quot;&gt;Last Name&lt;/font&gt;" style="text;html=1;align=left;verticalAlign=middle;whiteSpace=wrap;rounded=0;" parent="1" vertex="1">
          <mxGeometry x="130" y="520" width="90" height="30" as="geometry" />
        </mxCell>
        <mxCell id="ubhy5sFj4Xcip8Dqailu-30" value="&lt;font color=&quot;#999999&quot;&gt;Address Line 1&lt;/font&gt;" style="text;html=1;align=left;verticalAlign=middle;whiteSpace=wrap;rounded=0;" parent="1" vertex="1">
          <mxGeometry x="130" y="560" width="90" height="30" as="geometry" />
        </mxCell>
        <mxCell id="ubhy5sFj4Xcip8Dqailu-31" value="&lt;font color=&quot;#999999&quot;&gt;Address Line 2&lt;/font&gt;" style="text;html=1;align=left;verticalAlign=middle;whiteSpace=wrap;rounded=0;" parent="1" vertex="1">
          <mxGeometry x="130" y="600" width="90" height="30" as="geometry" />
        </mxCell>
        <mxCell id="ubhy5sFj4Xcip8Dqailu-32" value="&lt;font color=&quot;#999999&quot;&gt;City&lt;/font&gt;" style="text;html=1;align=left;verticalAlign=middle;whiteSpace=wrap;rounded=0;" parent="1" vertex="1">
          <mxGeometry x="130" y="640" width="90" height="30" as="geometry" />
        </mxCell>
        <mxCell id="ubhy5sFj4Xcip8Dqailu-34" value="&lt;font color=&quot;#999999&quot;&gt;Zip&lt;/font&gt;" style="text;html=1;align=left;verticalAlign=middle;whiteSpace=wrap;rounded=0;" parent="1" vertex="1">
          <mxGeometry x="130" y="720" width="90" height="30" as="geometry" />
        </mxCell>
        <mxCell id="ubhy5sFj4Xcip8Dqailu-35" value="&lt;font color=&quot;#999999&quot;&gt;Phone Number&lt;/font&gt;" style="text;html=1;align=left;verticalAlign=middle;whiteSpace=wrap;rounded=0;" parent="1" vertex="1">
          <mxGeometry x="130" y="760" width="90" height="30" as="geometry" />
        </mxCell>
        <mxCell id="ubhy5sFj4Xcip8Dqailu-39" value="" style="endArrow=none;html=1;rounded=0;" parent="1" edge="1">
          <mxGeometry width="50" height="50" relative="1" as="geometry">
            <mxPoint x="1050" y="440" as="sourcePoint" />
            <mxPoint x="1050" y="440" as="targetPoint" />
          </mxGeometry>
        </mxCell>
        <mxCell id="ubhy5sFj4Xcip8Dqailu-41" value="&lt;font color=&quot;#999999&quot; style=&quot;font-size: 12px;&quot;&gt;State&lt;/font&gt;" style="strokeWidth=1;shadow=0;dashed=0;align=center;html=1;shape=mxgraph.mockup.forms.comboBox;strokeColor=#999999;fillColor=#ddeeff;align=left;fillColor2=#aaddff;mainText=;fontColor=#666666;fontSize=17;spacingLeft=3;" parent="1" vertex="1">
          <mxGeometry x="130" y="680" width="190" height="30" as="geometry" />
        </mxCell>
        <mxCell id="ubhy5sFj4Xcip8Dqailu-43" value="Email:" style="text;html=1;align=left;verticalAlign=middle;whiteSpace=wrap;rounded=0;" parent="1" vertex="1">
          <mxGeometry x="590" y="480" width="90" height="30" as="geometry" />
        </mxCell>
        <mxCell id="ubhy5sFj4Xcip8Dqailu-44" value="Password:" style="text;html=1;align=left;verticalAlign=middle;whiteSpace=wrap;rounded=0;" parent="1" vertex="1">
          <mxGeometry x="40" y="900" width="90" height="30" as="geometry" />
        </mxCell>
        <mxCell id="ubhy5sFj4Xcip8Dqailu-45" value="Retype Password" style="text;html=1;align=left;verticalAlign=middle;whiteSpace=wrap;rounded=0;" parent="1" vertex="1">
          <mxGeometry x="40" y="950" width="100" height="30" as="geometry" />
        </mxCell>
        <mxCell id="ubhy5sFj4Xcip8Dqailu-46" value="********" style="strokeWidth=1;shadow=0;dashed=0;align=center;html=1;shape=mxgraph.mockup.forms.pwField;strokeColor=#999999;mainText=;align=left;fontColor=#666666;fontSize=17;spacingLeft=3;" parent="1" vertex="1">
          <mxGeometry x="140" y="900" width="150" height="30" as="geometry" />
        </mxCell>
        <mxCell id="ubhy5sFj4Xcip8Dqailu-47" value="********" style="strokeWidth=1;shadow=0;dashed=0;align=center;html=1;shape=mxgraph.mockup.forms.pwField;strokeColor=#999999;mainText=;align=left;fontColor=#666666;fontSize=17;spacingLeft=3;" parent="1" vertex="1">
          <mxGeometry x="140" y="950" width="150" height="30" as="geometry" />
        </mxCell>
        <mxCell id="ubhy5sFj4Xcip8Dqailu-49" value="" style="rounded=0;whiteSpace=wrap;html=1;" parent="1" vertex="1">
          <mxGeometry x="130" y="850" width="390" height="30" as="geometry" />
        </mxCell>
        <mxCell id="ubhy5sFj4Xcip8Dqailu-50" value="&lt;font color=&quot;#999999&quot;&gt;Veteran, Active Duty, First Responder, Spouse.&lt;/font&gt;" style="text;html=1;align=left;verticalAlign=middle;whiteSpace=wrap;rounded=0;" parent="1" vertex="1">
          <mxGeometry x="130" y="800" width="390" height="30" as="geometry" />
        </mxCell>
        <mxCell id="ubhy5sFj4Xcip8Dqailu-36" value="&lt;font color=&quot;#999999&quot;&gt;anyname@serviceprovider.com&amp;nbsp; &amp;nbsp; &amp;nbsp;&amp;nbsp;&lt;/font&gt;" style="text;html=1;align=left;verticalAlign=middle;whiteSpace=wrap;rounded=0;" parent="1" vertex="1">
          <mxGeometry x="680" y="480" width="340" height="30" as="geometry" />
        </mxCell>
        <mxCell id="mlrIeRnkjeaRNP7PGBqb-1" value="Email:" style="text;html=1;align=left;verticalAlign=middle;whiteSpace=wrap;rounded=0;" parent="1" vertex="1">
          <mxGeometry x="40" y="850" width="90" height="30" as="geometry" />
        </mxCell>
        <mxCell id="mlrIeRnkjeaRNP7PGBqb-2" value="Password:" style="text;html=1;align=left;verticalAlign=middle;whiteSpace=wrap;rounded=0;" parent="1" vertex="1">
          <mxGeometry x="590" y="520" width="90" height="30" as="geometry" />
        </mxCell>
        <mxCell id="mlrIeRnkjeaRNP7PGBqb-3" value="********" style="strokeWidth=1;shadow=0;dashed=0;align=center;html=1;shape=mxgraph.mockup.forms.pwField;strokeColor=#999999;mainText=;align=left;fontColor=#666666;fontSize=17;spacingLeft=3;" parent="1" vertex="1">
          <mxGeometry x="680" y="520" width="150" height="30" as="geometry" />
        </mxCell>
        <mxCell id="mlrIeRnkjeaRNP7PGBqb-6" value="&lt;font color=&quot;#999999&quot;&gt;anyname@serviceprovider.com&amp;nbsp; &amp;nbsp; &amp;nbsp; (This will be your username)&lt;/font&gt;" style="text;html=1;align=left;verticalAlign=middle;whiteSpace=wrap;rounded=0;" parent="1" vertex="1">
          <mxGeometry x="130" y="850" width="390" height="30" as="geometry" />
        </mxCell>
        <mxCell id="mlrIeRnkjeaRNP7PGBqb-7" value="&lt;font style=&quot;font-size: 24px;&quot;&gt;Login&lt;/font&gt;" style="text;html=1;align=center;verticalAlign=middle;whiteSpace=wrap;rounded=0;" parent="1" vertex="1">
          <mxGeometry x="765" y="420" width="170" height="60" as="geometry" />
        </mxCell>
        <mxCell id="mlrIeRnkjeaRNP7PGBqb-8" value="" style="verticalLabelPosition=bottom;shadow=0;dashed=0;align=center;html=1;verticalAlign=top;strokeWidth=1;shape=mxgraph.mockup.graphics.simpleIcon;strokeColor=#999999;" parent="1" vertex="1">
          <mxGeometry x="560" y="640" width="490" height="340" as="geometry" />
        </mxCell>
        <mxCell id="VPSaoxldd0FvlhTWm_se-1" value="Login" style="strokeWidth=1;shadow=0;dashed=0;align=center;html=1;shape=mxgraph.mockup.buttons.button;strokeColor=#ff0000;fontColor=#ffffff;mainText=;buttonStyle=round;fontSize=17;fontStyle=1;fillColor=#ff0000;whiteSpace=wrap;verticalAlign=middle;fontFamily=Helvetica;" vertex="1" parent="1">
          <mxGeometry x="680" y="570" width="150" height="50" as="geometry" />
        </mxCell>
        <mxCell id="VPSaoxldd0FvlhTWm_se-2" value="Register" style="strokeWidth=1;shadow=0;dashed=0;align=center;html=1;shape=mxgraph.mockup.buttons.button;strokeColor=#ff0000;fontColor=#ffffff;mainText=;buttonStyle=round;fontSize=17;fontStyle=1;fillColor=#ff0000;whiteSpace=wrap;verticalAlign=middle;fontFamily=Helvetica;" vertex="1" parent="1">
          <mxGeometry x="340" y="920" width="150" height="50" as="geometry" />
        </mxCell>
        <mxCell id="VPSaoxldd0FvlhTWm_se-3" value="" style="line;strokeWidth=1;html=1;rounded=0;shadow=0;labelBackgroundColor=none;fillColor=none;fontFamily=Verdana;fontSize=14;fontColor=#000000;align=center;comic=1;rotation=-90;" vertex="1" parent="1">
          <mxGeometry x="242.5" y="707.5" width="595" height="10" as="geometry" />
        </mxCell>
      </root>
    </mxGraphModel>
  </diagram>
</mxfile>
